<svg width="200" height="200" viewBox="0 0 200 200" fill="none" xmlns="http://www.w3.org/2000/svg">
<rect width="200" height="200" rx="16" fill="#0B1114"/>
<path d="M159.8 33V29C157.533 29.1333 154.867 29.2667 151.8 29.4C148.733 29.5333 145.267 29.6 141.4 29.6H131.8C128.867 29.4667 125.933 29.4 123 29.4L114.2 29V33C119.533 33.1333 123.333 34.3333 125.6 36.6C127.867 38.8667 128.467 42.0667 127.4 46.2C126.333 50.3333 123.333 55.3333 118.4 61.2L104.2 79C101.84 81.7886 98.2155 86.1877 95.3609 89.668C92.5347 93.1136 91 97.4335 91 101.89C91 106.031 92.1804 110.086 94.4028 113.581L122.4 157.6C124.4 160.8 124.867 163.067 123.8 164.4C122.733 165.6 119.533 166.333 114.2 166.6V170.6C119.933 170.333 124.667 170.2 128.4 170.2C132.267 170.067 135.467 170 138 170C142.4 170 147.267 170.067 152.6 170.2C157.933 170.2 162.667 170.333 166.8 170.6V166.6C163.2 165.267 160.267 163.667 158 161.8C155.733 159.933 153.533 157.467 151.4 154.4L111.345 94.0654C107.468 88.2263 107.843 80.544 112.27 75.1102L132.4 50.4C137.2 44.6667 141.867 40.5333 146.4 38C150.933 35.4667 155.4 33.8 159.8 33Z" fill="white"/>
<path d="M76.8 50.2C76.8 45.2667 77.2 41.6667 78 39.4C78.8 37 80.2667 35.4 82.4 34.6C84.6667 33.6667 87.9333 33.1333 92.2 33V29C88.8667 29.1333 84.6 29.2667 79.4 29.4C74.2 29.5333 68.9333 29.6 63.6 29.6C57.6 29.6 52 29.5333 46.8 29.4C41.6 29.2667 37.3333 29.1333 34 29V33C38.4 33.1333 41.6667 33.6667 43.8 34.6C46.0667 35.4 47.5333 37 48.2 39.4C49 41.6667 49.4 45.2667 49.4 50.2V149.4C49.4 154.2 49 157.8 48.2 160.2C47.5333 162.6 46.0667 164.2 43.8 165C41.6667 165.8 38.4 166.333 34 166.6V170.6C37.3333 170.333 41.6 170.2 46.8 170.2C52 170.067 57.6 170 63.6 170C68.9333 170 74.2 170.067 79.4 170.2C84.6 170.2 88.8667 170.333 92.2 170.6V166.6C87.9333 166.333 84.6667 165.8 82.4 165C80.2667 164.2 78.8 162.6 78 160.2C77.2 157.8 76.8 154.2 76.8 149.4V50.2Z" fill="white"/>
</svg>
